<?xml version="1.0" encoding="utf-8"?>
<!-- Generator: Adobe Illustrator 17.0.0, SVG Export Plug-In . SVG Version: 6.00 Build 0)  -->
<!DOCTYPE svg PUBLIC "-//W3C//DTD SVG 1.1//EN" "http://www.w3.org/Graphics/SVG/1.1/DTD/svg11.dtd">
<svg version="1.1" id="Layer_2" xmlns="http://www.w3.org/2000/svg" xmlns:xlink="http://www.w3.org/1999/xlink" x="0px" y="0px"
	 width="234px" height="91px" viewBox="0 0 234 91" enable-background="new 0 0 234 91" xml:space="preserve">
<g>
	<g>
		<path fill="#FFFFFF" d="M67.568,40.721c-1.427-2.056-2.469-3.891-3.837-5.353c-0.793-0.024-1.171,0.421-1.607,0.721
			c-3.506,2.411-7.02,4.811-10.49,7.274c-0.996,0.707-1.658,0.686-2.326-0.385c-0.694-1.112-1.494-2.159-2.249-3.233
			c-0.291-0.414-0.58-0.826-0.34-1.441c0.381-0.563,1.054-0.877,1.642-1.286c5.503-3.822,11.013-7.634,16.521-11.447
			c1.477-1.022,1.692-0.988,2.694,0.46c3.275,4.726,6.547,9.455,9.815,14.185c0.304,0.44,0.71,0.841,0.87,1.723
			c-6.552,4.541-13.104,9.082-19.876,13.776c-1.626-1.719-2.732-3.632-4.115-5.723C58.758,46.864,63.097,43.838,67.568,40.721z"/>
		<path fill="#FFFFFF" d="M28.228,32.123c2.504-1.489,4.72-3.624,7.554-4.885C42.79,37.414,49.706,47.261,56.579,57.33
			c-2.815,1.944-5.275,3.644-7.936,5.482c-6.938-10.021-13.68-19.755-20.411-29.496C28.016,33.004,28.089,32.62,28.228,32.123z"/>
		<path fill="#FFFFFF" d="M57.42,12.024c1.953,2.849,3.62,5.28,5.417,7.902c-6.733,4.665-13.182,9.133-19.887,13.779
			c-2.028-2.501-3.664-5.091-5.587-7.908C44.136,21.162,50.632,16.486,57.42,12.024z"/>
		<path fill="#FFFFFF" d="M19.797,68.722c-0.355,0.38-0.659,0.705-0.956,1.022c-3.733-2.164-6.521-1.859-7.82,0.826
			c-1.004,2.075,0.004,4.691,2.152,5.535c2.009,0.789,5.246,0.285,5.7-2.275c-0.841,0-1.672,0-2.462,0
			c-0.359-0.559-0.246-1.031-0.119-1.622c1.119,0,2.243-0.005,3.367,0.003c0.353,0.002,0.706,0.04,1.05,0.061
			c0.198,2.645-1.33,4.911-3.676,5.527c-3.212,0.844-6.207-0.388-7.488-3.081C8.39,72.289,9.1,69.422,11.262,67.79
			C13.689,65.957,17.161,66.296,19.797,68.722z"/>
		<path fill="#FFFFFF" d="M30.336,66.998c0.53,0,0.93,0,1.495,0c0,2.246-0.019,4.453,0.006,6.66c0.019,1.67,0.675,2.56,1.983,2.813
			c1.925,0.371,3.219-0.704,3.251-2.767c0.034-2.206,0.008-4.413,0.008-6.579c0.511-0.243,0.896-0.19,1.386-0.072
			c0,2.645,0.153,5.31-0.051,7.947c-0.15,1.943-2.001,3.097-4.189,3.024c-2.145-0.072-3.734-1.426-3.858-3.604
			C30.229,71.991,30.336,69.549,30.336,66.998z"/>
		<path fill="#FFFFFF" d="M92.126,77.42c-0.631,0.321-1.058,0.302-1.609,0.078c0-2.923,0-5.881,0-8.957c-0.862,0-1.606,0-2.34,0
			c-0.288-0.529-0.132-0.974-0.165-1.498c2.139,0,4.237,0,6.375,0c0.275,0.384,0.116,0.831,0.102,1.321
			c-0.725,0.304-1.505,0.026-2.364,0.214C92.126,71.491,92.126,74.449,92.126,77.42z"/>
		<path fill="#FFFFFF" d="M97.066,67.006c0,3.551,0,7.015,0,10.473c-0.449,0.295-0.878,0.221-1.383,0.095c0-3.505,0-7.008,0-10.568
			C96.119,67.006,96.509,67.006,97.066,67.006z"/>
		<path fill="#FFFFFF" d="M73.376,72.516c-0.075-0.526-0.161-0.924,0.092-1.363c1.858,0,3.743,0,5.639,0
			c0.324,0.416,0.192,0.853,0.108,1.363C77.294,72.516,75.374,72.516,73.376,72.516z"/>
		<path fill="#FFFFFF" d="M79.262,67.042c0,0.474,0,0.875,0,1.371c-1.941,0-3.855,0-5.812,0c-0.282-0.396-0.084-0.844-0.133-1.371
			C75.284,67.042,77.198,67.042,79.262,67.042z"/>
		<path fill="#FFFFFF" d="M79.253,76.223c0,0.513,0,0.913,0,1.389c-1.963,0-3.882,0-5.788,0c-0.274-0.459-0.117-0.893-0.133-1.389
			C75.316,76.223,77.234,76.223,79.253,76.223z"/>
		<g>
			<path fill="#FFFFFF" d="M53.745,66.639c-3.276,0.015-5.897,2.549-5.879,5.684c0.018,3.215,2.66,5.723,6.004,5.699
				c3.274-0.023,5.804-2.533,5.793-5.749C59.654,69.129,57.023,66.624,53.745,66.639z M53.892,76.433
				c-2.453,0.022-4.501-1.885-4.464-4.156c0.036-2.206,1.971-4.04,4.27-4.047c2.426-0.008,4.349,1.78,4.372,4.066
				C58.092,74.484,56.145,76.413,53.892,76.433z"/>
		</g>
		<g>
			<path fill="#FFFFFF" d="M84.217,73.201c0.252-0.123,0.406-0.207,0.566-0.276c1.644-0.71,2.294-1.664,2.165-3.186
				c-0.111-1.308-1.079-2.256-2.697-2.629c-1.151-0.265-2.302-0.195-3.489-0.059c0,3.541,0,6.999,0,10.542
				c0.533,0.038,1.005,0.238,1.57-0.268c0-1.218,0-2.538,0-4.236c1.179,1.721,2.137,3.12,3.078,4.494c0.574,0,1.085,0,1.75,0
				C86.147,76.076,85.222,74.698,84.217,73.201z M82.306,71.858c0-1.205,0-2.311,0-3.411c1.93-0.202,2.979,0.35,3.056,1.571
				C85.444,71.324,84.426,71.962,82.306,71.858z"/>
		</g>
		<g>
			<path fill="#FFFFFF" d="M25.912,73.185c0.297-0.127,0.497-0.21,0.694-0.297c1.449-0.637,2.169-1.68,2.086-3.017
				c-0.083-1.331-1.06-2.36-2.614-2.739c-1.196-0.291-2.393-0.204-3.569-0.107c0,3.599,0,7.073,0,10.55
				c0.509,0.104,0.943,0.204,1.428-0.157c0-1.262,0-2.567,0-3.872c0.107-0.04,0.214-0.081,0.32-0.121
				c0.963,1.397,1.925,2.793,2.885,4.185c0.554,0.032,1.08,0.19,1.634-0.16C27.813,76.017,26.889,74.64,25.912,73.185z
				 M24.022,71.86c-0.136-1.167-0.116-2.273-0.004-3.476c1.088-0.048,2.121-0.115,2.814,0.886c0.361,0.522,0.373,1.133,0.023,1.662
				C26.183,71.946,25.153,71.943,24.022,71.86z"/>
		</g>
		<g>
			<path fill="#FFFFFF" d="M44.162,67.144c-1.156-0.291-2.316-0.205-3.562-0.131c0,3.543,0,7.04,0,10.528
				c0.514,0.154,0.941,0.228,1.427-0.069c0-1.325,0-2.674,0-4.041c0.819-0.144,1.589-0.209,2.317-0.421
				c1.578-0.459,2.484-1.624,2.447-3.014C46.752,68.591,45.784,67.551,44.162,67.144z M42.116,71.867
				c-0.171-1.143-0.099-2.29-0.039-3.513c2.183,0,3.143,0.578,3.123,1.785C45.18,71.313,44.191,71.88,42.116,71.867z"/>
		</g>
		<g>
			<path fill="#FFFFFF" d="M71.913,69.932c-0.065-1.369-0.988-2.375-2.552-2.771c-1.192-0.302-2.39-0.263-3.616-0.116
				c0,3.547,0,7.016,0,10.493c0.481,0.185,0.904,0.198,1.447-0.074c0-1.295,0-2.636,0-4.015c0.857-0.161,1.619-0.239,2.342-0.453
				C71.088,72.536,71.98,71.34,71.913,69.932z M67.277,71.848c0-1.204,0-2.305,0-3.398c1.932-0.2,3.008,0.4,3.037,1.641
				C70.344,71.321,69.4,71.89,67.277,71.848z"/>
		</g>
	</g>
	<g>
		<path fill="#FFFFFF" d="M117.702,34.521v7.164h-1.207v-7.164h-1.587v-1.106h4.381v1.106H117.702z"/>
		<path fill="#FFFFFF" d="M125.558,39.092h-5.13c0.235,0.961,1.017,1.687,2.034,1.687c0.726,0,1.431-0.391,1.766-1.039h1.162
			c-0.469,1.263-1.62,2.101-2.973,2.101c-1.766,0-3.152-1.531-3.152-3.263c0-1.788,1.364-3.252,3.174-3.252
			c1.755,0,3.151,1.441,3.151,3.185C125.592,38.701,125.581,38.902,125.558,39.092z M122.429,36.387
			c-1.006,0-1.933,0.794-2.001,1.81h4.001C124.362,37.181,123.435,36.387,122.429,36.387z"/>
		<path fill="#FFFFFF" d="M131.079,41.685v-3.364c0-1.051-0.313-1.934-1.542-1.934c-1.14,0-1.632,0.883-1.632,1.922v3.375h-1.163
			v-6.192h1.084v0.66h0.022c0.447-0.592,1.095-0.827,1.81-0.827c0.883,0,1.71,0.346,2.19,1.107c0.302,0.469,0.391,1.039,0.391,1.587
			v3.666H131.079z"/>
		<path fill="#FFFFFF" d="M139.707,39.092h-5.13c0.235,0.961,1.017,1.687,2.034,1.687c0.726,0,1.431-0.391,1.766-1.039h1.162
			c-0.469,1.263-1.62,2.101-2.973,2.101c-1.766,0-3.152-1.531-3.152-3.263c0-1.788,1.364-3.252,3.174-3.252
			c1.755,0,3.151,1.441,3.151,3.185C139.74,38.701,139.729,38.902,139.707,39.092z M136.577,36.387c-1.006,0-1.933,0.794-2.001,1.81
			h4.001C138.51,37.181,137.583,36.387,136.577,36.387z"/>
		<path fill="#FFFFFF" d="M149.105,41.685v-3.442c0-0.972-0.324-1.856-1.464-1.856c-1.207,0-1.475,0.827-1.475,1.844v3.454h-1.163
			v-3.442c0-0.47,0-0.861-0.257-1.274c-0.268-0.414-0.671-0.582-1.151-0.582c-1.196,0-1.531,0.805-1.531,1.844v3.454h-1.162v-6.192
			h1.073v0.671h0.022c0.514-0.603,0.961-0.838,1.777-0.838c0.727,0,1.598,0.346,1.922,1.039c0.48-0.76,1.14-1.039,2.045-1.039
			c1.643,0,2.526,1.028,2.526,2.626v3.733H149.105z"/>
		<path fill="#FFFFFF" d="M154.771,41.841c-1.822,0-3.342-1.464-3.342-3.297c0-1.822,1.554-3.219,3.342-3.219
			c1.81,0,3.342,1.408,3.342,3.241C158.113,40.332,156.648,41.841,154.771,41.841z M154.771,36.387c-1.207,0-2.18,0.984-2.18,2.191
			c0,1.207,0.972,2.201,2.18,2.201c1.218,0,2.179-1.006,2.179-2.213C156.95,37.359,155.978,36.387,154.771,36.387z"/>
		<path fill="#FFFFFF" d="M160.962,41.841c-0.268,0-0.536-0.056-0.793-0.145c-0.917-0.324-1.397-1.073-1.397-2.045h1.163
			c0.045,0.637,0.358,1.128,1.051,1.128c0.514,0,0.894-0.313,0.894-0.849c0-1.297-2.828-0.626-2.828-2.817
			c0-1.062,0.928-1.788,1.945-1.788c1.062,0,1.878,0.738,1.9,1.81h-1.163c-0.056-0.447-0.324-0.749-0.794-0.749
			c-0.391,0-0.726,0.246-0.726,0.66c0,0.547,0.536,0.67,0.961,0.804c1.017,0.313,1.866,0.816,1.866,2.012
			C163.041,41.081,162.147,41.841,160.962,41.841z"/>
		<path fill="#FFFFFF" d="M167.333,41.685v-8.27h1.162v8.27H167.333z"/>
		<path fill="#FFFFFF" d="M175.077,41.685v-0.961h-0.023c-0.435,0.748-1.251,1.118-2.101,1.118c-1.856,0-3.286-1.364-3.286-3.23
			c0-1.877,1.408-3.286,3.286-3.286c0.827,0,1.643,0.335,2.101,1.039h0.023v-0.872h1.162v6.192H175.077z M172.954,36.387
			c-1.229,0-2.124,1.006-2.124,2.213c0,1.162,0.928,2.179,2.112,2.179c1.207,0,2.157-0.983,2.157-2.179
			C175.1,37.359,174.216,36.387,172.954,36.387z"/>
		<path fill="#FFFFFF" d="M187.315,35.527c-0.615-0.715-1.352-1.162-2.325-1.162c-1.744,0-3.074,1.441-3.074,3.163
			c0,1.676,1.33,3.207,3.051,3.207c0.872,0,1.699-0.436,2.257-1.095h1.487c-0.782,1.375-2.168,2.202-3.755,2.202
			c-2.358,0-4.247-1.989-4.247-4.325c0-2.369,1.9-4.258,4.258-4.258c0.883,0,1.81,0.29,2.526,0.804
			c0.581,0.414,0.927,0.85,1.274,1.464H187.315z"/>
		<path fill="#FFFFFF" d="M195.585,39.092h-5.13c0.235,0.961,1.017,1.687,2.034,1.687c0.726,0,1.431-0.391,1.766-1.039h1.162
			c-0.469,1.263-1.62,2.101-2.973,2.101c-1.766,0-3.152-1.531-3.152-3.263c0-1.788,1.364-3.252,3.174-3.252
			c1.755,0,3.151,1.441,3.151,3.185C195.618,38.701,195.607,38.902,195.585,39.092z M192.455,36.387
			c-1.006,0-1.933,0.794-2.001,1.81h4.001C194.388,37.181,193.461,36.387,192.455,36.387z"/>
		<path fill="#FFFFFF" d="M198.624,36.745c-0.548,0.279-0.682,0.995-0.682,1.554v3.386h-1.162v-6.192h1.084v0.559h0.022
			c0.38-0.536,0.95-0.704,1.576-0.726v1.196C199.205,36.521,198.848,36.622,198.624,36.745z"/>
		<path fill="#FFFFFF" d="M201.898,36.555v5.13h-1.163v-5.13h-0.838v-1.062h0.838v-2.078h1.163v2.078h1.017v1.062H201.898z"/>
		<path fill="#FFFFFF" d="M209.676,39.092h-5.13c0.235,0.961,1.017,1.687,2.034,1.687c0.726,0,1.431-0.391,1.766-1.039h1.162
			c-0.469,1.263-1.62,2.101-2.973,2.101c-1.766,0-3.152-1.531-3.152-3.263c0-1.788,1.364-3.252,3.174-3.252
			c1.755,0,3.151,1.441,3.151,3.185C209.71,38.701,209.699,38.902,209.676,39.092z M206.547,36.387c-1.006,0-1.933,0.794-2.001,1.81
			h4.001C208.48,37.181,207.553,36.387,206.547,36.387z"/>
		<path fill="#FFFFFF" d="M210.156,41.685v-0.905l2.973-4.224h-2.682v-1.062h3.956v1.129l-2.805,4.001h3.04v1.062H210.156z"/>
		<path fill="#FFFFFF" d="M220.505,41.685v-0.961h-0.022c-0.436,0.748-1.252,1.118-2.101,1.118c-1.856,0-3.286-1.364-3.286-3.23
			c0-1.877,1.408-3.286,3.286-3.286c0.827,0,1.643,0.335,2.101,1.039h0.022v-0.872h1.162v6.192H220.505z M218.382,36.387
			c-1.229,0-2.124,1.006-2.124,2.213c0,1.162,0.928,2.179,2.112,2.179c1.207,0,2.157-0.983,2.157-2.179
			C220.527,37.359,219.644,36.387,218.382,36.387z"/>
		<path fill="#FFFFFF" d="M120.686,55.095v-0.883h-0.022c-0.514,0.715-1.33,1.039-2.191,1.039c-1.855,0-3.219-1.386-3.219-3.23
			c0-1.855,1.341-3.286,3.219-3.286c0.783,0,1.609,0.302,2.101,0.928h0.022v-2.839h1.163v8.27H120.686z M118.54,49.798
			c-1.229,0-2.124,1.006-2.124,2.213c0,1.162,0.928,2.179,2.112,2.179c1.207,0,2.157-0.983,2.157-2.179
			C120.686,50.77,119.803,49.798,118.54,49.798z"/>
		<path fill="#FFFFFF" d="M130.52,52.502h-5.13c0.235,0.961,1.017,1.688,2.034,1.688c0.726,0,1.431-0.391,1.766-1.039h1.162
			c-0.469,1.263-1.62,2.101-2.973,2.101c-1.766,0-3.152-1.531-3.152-3.263c0-1.788,1.364-3.252,3.174-3.252
			c1.755,0,3.151,1.442,3.151,3.185C130.554,52.111,130.543,52.312,130.52,52.502z M127.391,49.798
			c-1.006,0-1.933,0.794-2.001,1.811h4.001C129.324,50.591,128.397,49.798,127.391,49.798z"/>
		<path fill="#FFFFFF" d="M142.4,55.095v-3.308h-2.705v3.308h-2.112v-8.27h2.112v3.107h2.705v-3.107h2.112v8.27H142.4z"/>
		<path fill="#FFFFFF" d="M151.877,55.095v-0.671h-0.022c-0.335,0.637-1.14,0.883-1.811,0.883c-1.911,0-3.118-1.476-3.118-3.319
			c0-1.81,1.252-3.308,3.118-3.308c0.682,0,1.442,0.257,1.811,0.872h0.022v-0.659h1.856v6.203H151.877z M150.312,50.412
			c-0.905,0-1.531,0.715-1.531,1.598c0,0.86,0.67,1.564,1.542,1.564c0.905,0,1.553-0.693,1.553-1.587
			C151.877,51.083,151.217,50.412,150.312,50.412z"/>
		<path fill="#FFFFFF" d="M159.387,55.296c-1.856,0-3.319-1.464-3.319-3.319c0-1.833,1.431-3.297,3.274-3.297
			c1.587,0,2.962,1.028,3.286,2.604h-1.878c-0.268-0.581-0.749-0.872-1.386-0.872c-0.894,0-1.431,0.738-1.431,1.576
			c0,0.871,0.57,1.576,1.476,1.576c0.615,0,1.062-0.291,1.341-0.827h1.889C162.281,54.257,160.951,55.296,159.387,55.296z"/>
		<path fill="#FFFFFF" d="M171.088,52.558h-4.649c0.112,0.738,0.727,1.173,1.453,1.173c0.503,0,0.827-0.201,1.129-0.581h1.9
			c-0.536,1.241-1.632,2.146-3.029,2.146c-1.81,0-3.286-1.475-3.286-3.286c0-1.8,1.431-3.331,3.252-3.331
			c1.9,0,3.274,1.52,3.274,3.387C171.132,52.234,171.121,52.391,171.088,52.558z M167.869,50.245c-0.671,0-1.263,0.391-1.408,1.062
			h2.817C169.132,50.636,168.54,50.245,167.869,50.245z"/>
		<path fill="#FFFFFF" d="M175.289,51.686v3.409h-1.856v-6.203h1.744v0.659h0.022c0.324-0.637,0.838-0.872,1.553-0.872v1.866
			C175.937,50.569,175.289,50.725,175.289,51.686z"/>
		<path fill="#FFFFFF" d="M179.01,55.095v-8.27h1.855v8.27H179.01z"/>
		<path fill="#FFFFFF" d="M186.542,55.285c-1.9,0-3.342-1.397-3.342-3.297c0-1.9,1.442-3.297,3.342-3.297
			c1.9,0,3.342,1.397,3.342,3.297C189.884,53.888,188.442,55.285,186.542,55.285z M186.542,50.424c-0.86,0-1.487,0.726-1.487,1.565
			c0,0.838,0.626,1.564,1.487,1.564c0.861,0,1.487-0.726,1.487-1.564C188.029,51.15,187.403,50.424,186.542,50.424z"/>
		<path fill="#FFFFFF" d="M202.367,54.38c-0.85,0.727-1.632,0.715-2.705,0.715h-2.626v-8.27h2.548c0.995,0,1.933,0.011,2.649,0.804
			c0.347,0.38,0.492,0.85,0.492,1.364c0,0.704-0.346,1.319-0.961,1.665c0.905,0.313,1.363,0.983,1.363,1.922
			C203.126,53.24,202.881,53.944,202.367,54.38z M199.874,48.68h-0.816v1.285h0.805c0.458,0,0.838-0.134,0.838-0.659
			C200.701,48.781,200.31,48.68,199.874,48.68z M200.12,51.731h-1.062v1.509h1.051c0.526,0,0.995-0.179,0.995-0.794
			C201.103,51.854,200.612,51.731,200.12,51.731z"/>
		<path fill="#FFFFFF" d="M205.473,48.233v-1.408h1.855v1.408H205.473z M205.473,55.095v-6.203h1.855v6.203H205.473z"/>
		<path fill="#FFFFFF" d="M216.101,52.558h-4.649c0.112,0.738,0.727,1.173,1.453,1.173c0.503,0,0.827-0.201,1.129-0.581h1.9
			c-0.536,1.241-1.632,2.146-3.029,2.146c-1.811,0-3.286-1.475-3.286-3.286c0-1.8,1.431-3.331,3.252-3.331
			c1.9,0,3.274,1.52,3.274,3.387C216.146,52.234,216.135,52.391,216.101,52.558z M212.882,50.245c-0.671,0-1.263,0.391-1.408,1.062
			h2.817C214.145,50.636,213.553,50.245,212.882,50.245z"/>
		<path fill="#FFFFFF" d="M222.348,55.095v-3.386c0-0.693-0.134-1.285-0.972-1.285c-0.861,0-1.062,0.559-1.062,1.296v3.375h-1.855
			v-6.203h1.732v0.659h0.022c0.391-0.637,0.939-0.872,1.688-0.872c0.525,0,1.185,0.201,1.587,0.536
			c0.592,0.492,0.715,1.274,0.715,2.001v3.878H222.348z"/>
	</g>
	
		<line fill="#FFFFFF" stroke="#FFFFFF" stroke-width="1.7511" stroke-miterlimit="10" x1="105.948" y1="19.72" x2="105.948" y2="70.366"/>
</g>
</svg>
